<?xml version="1.0" encoding="UTF-8"?>
<svg id="Layer_2" data-name="Layer 2" xmlns="http://www.w3.org/2000/svg" viewBox="0 0 135.18 22.52">
  <defs>
    <style>
      .cls-1 {
        fill: #d61a65;
        stroke-width: 0px;
      }
    </style>
  </defs>
  <g id="Layer_1-2" data-name="Layer 1">
    <g>
      <path class="cls-1" d="M14.35,19.54c-1.23,1.99-3.27,2.98-6.1,2.98-1.6,0-3.03-.33-4.29-.98-2.64-1.38-3.96-3.83-3.96-7.34,0-2.15.58-3.96,1.74-5.41,1.53-1.86,3.66-2.8,6.39-2.8,1.5,0,2.84.25,4.03.76,2.11.94,3.16,2.45,3.16,4.5,0,.41-.07.79-.22,1.13-.63,1.36-2.89,1.97-6.79,1.85l-3.34-.11c.02,1.4.15,2.61.36,3.63.56,2.47,1.8,3.7,3.74,3.7.6,0,1.2-.11,1.78-.33,1.45-.53,2.52-1.54,3.2-3.01l.87.29c-.15.39-.34.76-.58,1.13ZM4.98,13.08l2.32.11c.97.05,1.69-.01,2.18-.18.68-.27,1.02-.97,1.02-2.11-.02-2.59-.81-3.91-2.36-3.96-1.94.07-2.99,2.12-3.16,6.14Z"/>
      <path class="cls-1" d="M33.27,20.16c-1.65,1.57-4.01,2.36-7.08,2.36-2.64,0-4.89-.62-6.76-1.85,0,.41-.02.74-.07.98-.12.39-.51.58-1.16.58v-7.7h1.42c.1,1.28.36,2.42.8,3.41,1.04,2.35,2.84,3.52,5.41,3.52.68,0,1.29-.1,1.85-.29,1.55-.58,2.32-1.74,2.32-3.49,0-.51-.11-1-.33-1.49-.51-1.02-1.8-2.07-3.89-3.16-2.32-1.19-3.63-1.88-3.92-2.07-2.3-1.43-3.45-3.15-3.45-5.16,0-1.36.47-2.53,1.42-3.52,1.48-1.53,3.68-2.29,6.61-2.29,2.23,0,4.35.47,6.36,1.42,0-.22.01-.41.04-.58.12-.46.52-.69,1.2-.69v6.57h-1.42c-.02-1.31-.34-2.43-.94-3.38-.99-1.5-2.48-2.25-4.47-2.25-.51,0-.99.07-1.45.22-1.38.46-2.07,1.4-2.07,2.83,0,.56.12,1.09.36,1.6.51,1.04,1.78,2.09,3.81,3.16,2.23,1.19,3.5,1.86,3.81,2.03,2.2,1.43,3.31,3.15,3.31,5.16,0,1.6-.57,2.95-1.71,4.07Z"/>
      <path class="cls-1" d="M51.43,7.7c1.91,1.53,2.87,3.64,2.87,6.36,0,2.03-.61,3.83-1.82,5.38-1.62,2.06-3.86,3.09-6.72,3.09-2.08,0-3.87-.63-5.38-1.89-1.89-1.6-2.83-3.76-2.83-6.5,0-1.94.56-3.63,1.67-5.08,1.6-2.03,3.89-3.05,6.86-3.05,2.08,0,3.86.57,5.34,1.71ZM42.97,19.25c.44,1.55,1.4,2.32,2.91,2.32.85,0,1.54-.25,2.07-.76.92-.92,1.38-3.15,1.38-6.68,0-2.2-.15-3.81-.44-4.83-.44-1.57-1.43-2.36-2.98-2.36-.92,0-1.63.28-2.14.84-.82.94-1.23,3.11-1.23,6.5,0,2.28.15,3.94.44,4.98Z"/>
      <path class="cls-1" d="M63.89,21.25c.31.05.47.35.47.91h-8.24v-.94c.19,0,.38-.01.54-.04,1.04-.12,1.56-.74,1.56-1.85V7.48h-2.11v-.94h6.46l.18,2.65c1.07-2.11,2.76-3.17,5.08-3.2.39,0,.77.05,1.16.15,1.48.44,2.51,1.51,3.09,3.23,1.16-2.23,2.92-3.35,5.27-3.38.85,0,1.63.23,2.36.69,1.57.99,2.36,2.68,2.36,5.05v9.48h1.2c.15,0,.29.01.44.04.31.05.47.35.47.91h-8.28v-.94c.39,0,.69-.04.91-.11.46-.19.69-.79.69-1.78v-8.03c0-.6-.07-1.16-.22-1.67-.39-1.23-1.1-1.85-2.14-1.85-.24,0-.48.05-.73.15-1.14.48-1.79,1.73-1.96,3.74v9.55h.62c.15,0,.29.01.44.04.31.05.47.35.47.91h-7.7v-.94c.39,0,.69-.04.91-.11.46-.19.69-.79.69-1.78v-8.03c0-.65-.08-1.25-.25-1.78-.39-1.11-1.03-1.67-1.93-1.67-.31,0-.63.08-.94.25-1.11.58-1.74,1.83-1.89,3.74l-.04,9.37h.65c.15,0,.28.01.4.04Z"/>
      <path class="cls-1" d="M100.17,19.54c-1.23,1.99-3.27,2.98-6.1,2.98-1.6,0-3.03-.33-4.29-.98-2.64-1.38-3.96-3.83-3.96-7.34,0-2.15.58-3.96,1.74-5.41,1.53-1.86,3.66-2.8,6.39-2.8,1.5,0,2.84.25,4.03.76,2.11.94,3.16,2.45,3.16,4.5,0,.41-.07.79-.22,1.13-.63,1.36-2.89,1.97-6.79,1.85l-3.34-.11c.02,1.4.15,2.61.36,3.63.56,2.47,1.8,3.7,3.74,3.7.6,0,1.2-.11,1.78-.33,1.45-.53,2.52-1.54,3.2-3.01l.87.29c-.15.39-.34.76-.58,1.13ZM90.8,13.08l2.32.11c.97.05,1.69-.01,2.18-.18.68-.27,1.02-.97,1.02-2.11-.02-2.59-.81-3.91-2.36-3.96-1.94.07-2.99,2.12-3.16,6.14Z"/>
      <path class="cls-1" d="M112.55,21.25c.31.05.47.35.47.91h-10.28v-.94c.31,0,.59-.02.83-.07.85-.15,1.27-.75,1.27-1.82V7.48h-2.11v-.94h6.36l.25,3.38c.27-.68.65-1.31,1.16-1.89,1.14-1.19,2.46-1.78,3.96-1.78.31,0,.62.04.91.11,1.19.31,1.78,1.08,1.78,2.29,0,.34-.07.67-.22.98-.41.92-1.1,1.38-2.07,1.38-.29,0-.56-.04-.8-.11-.51-.19-.98-.68-1.42-1.45-.31-.56-.61-.84-.87-.84-.15,0-.3.04-.47.11-1.07.56-1.68,2.11-1.85,4.65v7.84h2.69c.15,0,.28.01.4.04Z"/>
      <path class="cls-1" d="M132.31,7.7c1.91,1.53,2.87,3.64,2.87,6.36,0,2.03-.61,3.83-1.82,5.38-1.62,2.06-3.86,3.09-6.72,3.09-2.08,0-3.87-.63-5.38-1.89-1.89-1.6-2.83-3.76-2.83-6.5,0-1.94.56-3.63,1.67-5.08,1.6-2.03,3.89-3.05,6.86-3.05,2.08,0,3.86.57,5.34,1.71ZM123.85,19.25c.44,1.55,1.4,2.32,2.91,2.32.85,0,1.54-.25,2.07-.76.92-.92,1.38-3.15,1.38-6.68,0-2.2-.15-3.81-.44-4.83-.44-1.57-1.43-2.36-2.98-2.36-.92,0-1.63.28-2.14.84-.82.94-1.23,3.11-1.23,6.5,0,2.28.15,3.94.44,4.98Z"/>
    </g>
  </g>
</svg>